<?xml version="1.0" encoding="UTF-8"?>
<svg version="1.1" xmlns="http://www.w3.org/2000/svg" width="2000" height="2000">
<path d="M0 0 C1.70761253 -0.01469078 1.70761253 -0.01469078 3.44972229 -0.02967834 C28.19814391 -0.19871474 52.41632174 -0.15724959 76.8359375 4.23828125 C78.09277344 4.46322266 79.34960938 4.68816406 80.64453125 4.91992188 C96.58359638 7.85691712 112.31258689 11.57940127 127.8359375 16.23828125 C128.57714844 16.45919434 129.31835938 16.68010742 130.08203125 16.90771484 C181.01889441 32.34766365 228.30469624 59.75276379 267.8359375 95.23828125 C268.37250977 95.71700684 268.90908203 96.19573242 269.46191406 96.68896484 C282.26629372 108.15075709 295.20777732 120.06150404 305.7890625 133.63671875 C307.67203473 136.02996209 309.6426369 138.31904673 311.65283203 140.60546875 C327.10997379 158.31482674 339.52199675 178.77322409 350.78759766 199.33837891 C351.75942781 201.09962302 352.75566654 202.84733878 353.75390625 204.59375 C384.27006488 259.27115588 394.80349625 321.32709079 396.95352173 383.11758423 C400.09333702 472.51909502 428.1100049 559.1625061 487.8359375 627.23828125 C488.733125 628.28435547 488.733125 628.28435547 489.6484375 629.3515625 C500.88362721 642.39626594 512.7151657 655.07651358 525.8359375 666.23828125 C526.8053125 667.09679687 527.7746875 667.9553125 528.7734375 668.83984375 C543.40355501 681.73470059 559.253411 692.99914172 575.8359375 703.23828125 C576.49174805 703.6446582 577.14755859 704.05103516 577.82324219 704.46972656 C596.59821395 716.01712384 616.26098597 726.30688491 636.8359375 734.23828125 C637.72555176 734.58810059 638.61516602 734.93791992 639.53173828 735.29833984 C681.76639926 751.77821014 726.28761104 759.57842587 771.5269165 760.62615967 C854.88134401 762.63496801 933.92972683 784.74641986 1001.8359375 834.23828125 C1002.90457031 835.00914062 1003.97320313 835.78 1005.07421875 836.57421875 C1019.20253199 846.94121946 1032.58005841 858.72408152 1044.8359375 871.23828125 C1047.41735874 873.83263114 1050.01215549 876.41006917 1052.6328125 878.96484375 C1058.26572073 884.47358725 1063.56545536 890.06461811 1068.4609375 896.25390625 C1070.15867774 898.38725089 1071.87447993 900.46792344 1073.6484375 902.53515625 C1088.33792432 919.8264191 1100.77849626 939.36212963 1111.71582031 959.20800781 C1112.75927539 961.09932701 1113.82264018 962.97793275 1114.890625 964.85546875 C1134.77522999 1000.3241009 1147.08349379 1041.1484464 1153.6484375 1081.11328125 C1153.9412561 1082.89279175 1153.9412561 1082.89279175 1154.23999023 1084.70825195 C1157.24642888 1104.19767297 1158.21568803 1123.59803373 1158.1484375 1143.30078125 C1158.14661469 1144.41557861 1158.14479187 1145.53037598 1158.14291382 1146.67895508 C1158.09523791 1164.04603208 1157.53672578 1181.05336306 1154.8359375 1198.23828125 C1154.66433105 1199.34848633 1154.49272461 1200.45869141 1154.31591797 1201.60253906 C1143.56787985 1268.97227933 1115.37312818 1333.19041431 1071.34033203 1385.44140625 C1069.96242263 1387.08720521 1068.61259123 1388.7515343 1067.26953125 1390.42578125 C1060.30577334 1398.97251122 1052.54218242 1406.74449429 1044.7734375 1414.55078125 C1044.21862701 1415.11085876 1043.66381653 1415.67093628 1043.0921936 1416.24798584 C1035.99642362 1423.3957486 1028.73515832 1429.97701494 1020.8359375 1436.23828125 C1019.79631371 1437.11297973 1018.76118284 1437.99310429 1017.734375 1438.8828125 C952.23538058 1495.15516839 863.67033877 1524.55533695 777.9609375 1524.42578125 C777.15202057 1524.42484467 776.34310364 1524.42390808 775.50967407 1524.42294312 C732.83709865 1524.31656169 691.2013932 1517.08245849 650.8359375 1503.23828125 C650.00578125 1502.95903809 649.175625 1502.67979492 648.3203125 1502.39208984 C612.29228576 1490.20131507 577.95178988 1471.39455234 547.8359375 1448.23828125 C547.23313965 1447.77824707 546.6303418 1447.31821289 546.00927734 1446.84423828 C538.30920684 1440.95379618 530.97450422 1434.80476771 523.8359375 1428.23828125 C522.42385906 1426.98310042 521.0074463 1425.73277198 519.5859375 1424.48828125 C518.94269531 1423.92496094 518.29945313 1423.36164063 517.63671875 1422.78125 C516.04594515 1421.41822273 514.41250027 1420.10534142 512.7734375 1418.80078125 C509.84116698 1416.24284314 507.457079 1413.55398319 504.9453125 1410.59765625 C502.40054899 1407.75129114 499.6875374 1405.0952394 496.9609375 1402.42578125 C491.47800525 1397.01568375 486.60947634 1391.28743803 481.8359375 1385.23828125 C480.92783358 1384.12982586 480.0175674 1383.02313938 479.10546875 1381.91796875 C465.30996831 1365.11460069 453.46270371 1347.19219514 442.8359375 1328.23828125 C442.1229248 1326.96911865 442.1229248 1326.96911865 441.39550781 1325.67431641 C410.53892558 1270.1691767 396.96279756 1208.53931337 395.00305176 1145.44030762 C393.73656033 1105.91897703 389.0934707 1068.28513142 377.8359375 1030.23828125 C377.60471191 1029.44808594 377.37348633 1028.65789062 377.13525391 1027.84375 C370.93212425 1007.00937567 362.03830857 986.41095738 351.8359375 967.23828125 C351.21959334 966.03214818 350.60503349 964.82510178 349.9921875 963.6171875 C344.5913508 953.08394812 338.31674105 943.13520057 331.8359375 933.23828125 C331.30274902 932.42214355 330.76956055 931.60600586 330.22021484 930.76513672 C323.46962265 920.49602943 316.34070263 910.92734679 308.16455078 901.75683594 C306.20735536 899.51983565 304.37111977 897.19101555 302.5234375 894.86328125 C293.34305581 883.55143983 283.04715667 872.28565765 271.9609375 862.80078125 C269.17322398 860.4014324 266.43221009 857.96262355 263.7109375 855.48828125 C197.91915234 797.09386887 110.14314219 765.07868371 22.625 763.0625 C-40.50884447 761.59090967 -101.87049529 750.93980952 -158.30419922 721.2109375 C-160.23844185 720.19938294 -162.18600546 719.2176556 -164.13671875 718.23828125 C-204.01790418 697.97614234 -240.38300007 668.47920241 -270.1640625 635.23828125 C-270.916875 634.43519531 -271.6696875 633.63210938 -272.4453125 632.8046875 C-279.62296497 625.0939123 -285.90395209 616.69648499 -292.1640625 608.23828125 C-292.9365332 607.19510742 -292.9365332 607.19510742 -293.72460938 606.13085938 C-301.43582579 595.64082623 -308.29493053 584.74553464 -314.84472656 573.49804688 C-315.99788214 571.52291585 -317.16657199 569.55851426 -318.34375 567.59765625 C-351.16373291 511.97503461 -366.37243009 446.00289636 -366.4140625 381.80078125 C-366.41473724 380.85830536 -366.41541199 379.91582947 -366.41610718 378.9447937 C-366.32878028 301.59519458 -342.72549161 224.05128064 -297.1640625 161.23828125 C-296.6808252 160.57103027 -296.19758789 159.9037793 -295.69970703 159.21630859 C-288.90215274 149.8837731 -281.73892401 140.94876793 -274.1640625 132.23828125 C-273.55175781 131.52542969 -272.93945312 130.81257812 -272.30859375 130.078125 C-261.65536097 117.75478922 -250.57531627 105.81317604 -238.1640625 95.23828125 C-237.14758573 94.347325 -236.13203832 93.45530786 -235.1171875 92.5625 C-226.46213391 84.98932811 -217.45917817 78.00621377 -208.1640625 71.23828125 C-207.31714844 70.61566406 -206.47023438 69.99304688 -205.59765625 69.3515625 C-146.92783983 27.21132914 -72.61346396 0.51745684 0 0 Z " fill="#F76900" transform="translate(601.1640625,159.76171875)"/>
<path d="M0 0 C84.72256998 -2.01660009 168.866383 23.22127198 237.04296875 74.08251953 C237.58614746 74.48680176 238.12932617 74.89108398 238.68896484 75.30761719 C261.46488048 92.34397507 284.55565393 112.01912605 302.02734375 134.51220703 C303.91183949 136.91530431 305.89095621 139.20700978 307.90844727 141.49853516 C314.84842136 149.43832565 320.69121537 158.0420841 326.5234375 166.81347656 C327.88378802 168.8448226 329.26773288 170.85591034 330.66796875 172.85986328 C338.00750379 183.44396996 344.06094312 194.68900829 350.04296875 206.08251953 C350.42195313 206.80052734 350.8009375 207.51853516 351.19140625 208.25830078 C353.58307887 212.81686476 355.85328922 217.42369372 358.04296875 222.08251953 C358.42130859 222.88608887 358.79964844 223.6896582 359.18945312 224.51757812 C373.27113618 254.79546427 382.23273865 286.65580463 387.85546875 319.52001953 C388.05052002 320.65439453 388.24557129 321.78876953 388.4465332 322.95751953 C391.62009584 342.64564699 392.42203131 362.29089838 392.35546875 382.20751953 C392.3533136 383.37294281 392.35115845 384.53836609 392.34893799 385.73910522 C392.29768934 403.03167247 391.88478199 419.98858231 389.04296875 437.08251953 C388.73697754 438.97091553 388.73697754 438.97091553 388.42480469 440.89746094 C374.87671701 523.3268588 334.79933915 607.36263689 270.23046875 662.45751953 C267.24066402 665.03000926 264.32086982 667.66242068 261.41796875 670.33251953 C237.80094457 691.58066287 210.80027996 708.54560238 182.52392578 722.82226562 C180.43337444 723.88420481 178.35794468 724.96751218 176.2890625 726.07080078 C92.04096849 770.17178862 -14.1367268 773.69722011 -103.875 745.98486328 C-135.3754277 735.93425667 -166.29620101 722.32258325 -193.95703125 704.08251953 C-194.62557129 703.64375488 -195.29411133 703.20499023 -195.98291016 702.75292969 C-214.93003526 690.229643 -232.74730267 676.11438129 -249.32080078 660.60107422 C-250.93499384 659.10297203 -252.56510822 657.62481685 -254.203125 656.15283203 C-259.12124546 651.7277391 -263.87563753 647.30104763 -268.1328125 642.21923828 C-269.96268961 640.07589185 -271.87031891 638.01907587 -273.79833984 635.96411133 C-279.77089848 629.57647539 -285.23779153 622.88892149 -290.5390625 615.9375 C-291.98050225 614.05181488 -293.43704179 612.17847275 -294.89453125 610.30517578 C-310.42721646 590.16824042 -323.01690906 568.00392529 -333.95703125 545.08251953 C-334.48828613 543.97432861 -334.48828613 543.97432861 -335.03027344 542.84375 C-374.89114963 458.98814682 -380.87859514 360.46802634 -348.67529297 253.46582031 C-334.55689271 214.8615563 -314.91882424 178.06708348 -288.95703125 146.08251953 C-288.21324219 145.14794922 -287.46945312 144.21337891 -286.703125 143.25048828 C-282.1664445 137.6092247 -277.42361559 132.20038777 -272.51171875 126.88330078 C-270.52670235 124.70706721 -268.59174554 122.50719168 -266.66796875 120.27783203 C-262.84580878 115.89838114 -258.81871938 111.75203741 -254.70703125 107.64501953 C-253.95905273 106.89784668 -253.21107422 106.15067383 -252.44042969 105.38085938 C-247.68662822 100.67933127 -242.86861208 96.29049583 -237.6015625 92.16845703 C-235.1674955 90.24852826 -232.82356254 88.24956876 -230.48681641 86.21313477 C-211.2426731 69.52720554 -189.40922906 55.9921263 -166.95703125 44.08251953 C-165.9825 43.5652832 -165.9825 43.5652832 -164.98828125 43.03759766 C-119.83250836 19.30305719 -70.67604376 5.63643552 -19.95703125 1.08251953 C-19.19922363 1.01194336 -18.44141602 0.94136719 -17.66064453 0.86865234 C-11.77400776 0.34496472 -5.90415911 0.1647627 0 0 Z " fill="#F76900" transform="translate(1480.95703125,69.91748046875)"/>
<path d="M0 0 C1.47342914 1.21261123 2.96378045 2.40477677 4.46484375 3.58300781 C12.08147814 9.62335198 18.94151975 16.27004699 25.78613281 23.16064453 C27.68270626 25.06794411 29.58974993 26.96430137 31.49804688 28.85986328 C38.47827327 35.83209361 44.97548196 42.9193753 51.06054688 50.69580078 C52.0848026 51.95093129 53.11180647 53.20382843 54.14257812 54.45361328 C99.58025516 110.24057693 127.35132275 178.4777386 136.06054688 249.69580078 C136.17769043 250.58525391 136.29483398 251.47470703 136.41552734 252.39111328 C140.39020624 283.29084582 139.33724016 315.89802475 135.06054688 346.69580078 C134.92664551 347.70803711 134.79274414 348.72027344 134.65478516 349.76318359 C125.76304332 415.35729369 97.97841757 477.89842935 57.06054688 529.69580078 C56.3721875 530.57880859 55.68382812 531.46181641 54.97460938 532.37158203 C50.97736083 537.45108957 46.79548588 542.31055551 42.43164062 547.07861328 C40.52463441 549.183546 38.66439169 551.31419494 36.81054688 553.46533203 C32.92661914 557.91333295 28.80854671 562.09540491 24.62304688 566.25830078 C23.91083984 566.974375 23.19863281 567.69044922 22.46484375 568.42822266 C17.82743532 573.05720709 13.03517684 577.43343687 8.06054688 581.69580078 C7.08472656 582.55302734 6.10890625 583.41025391 5.10351562 584.29345703 C-19.57370686 605.59486249 -47.37830318 623.69259063 -76.81933594 637.68310547 C-78.2841107 638.38276988 -79.7441463 639.09241198 -81.20019531 639.81005859 C-131.66838264 664.64164524 -187.82852069 675.16435242 -243.75195312 675.07080078 C-244.42714115 675.07041431 -245.10232918 675.07002785 -245.79797745 675.06962967 C-266.13852074 675.05499188 -285.90515512 674.56734948 -305.93945312 670.69580078 C-307.29572895 670.45014421 -308.65235434 670.20641173 -310.00927734 669.96435547 C-376.62453192 658.00877368 -442.5710808 628.87281871 -492.70898438 582.74267578 C-494.77241587 580.84908891 -496.87519893 579.01753915 -499.00195312 577.19580078 C-503.53569933 573.24942251 -507.72565431 568.97768611 -511.93945312 564.69580078 C-514.52109847 562.10160286 -517.11563526 559.5240478 -519.73632812 556.96923828 C-526.29723673 550.55292574 -532.24816377 543.9079557 -537.93945312 536.69580078 C-538.84755704 535.58734539 -539.75782322 534.48065891 -540.66992188 533.37548828 C-591.30628051 471.70539411 -623.80756205 389.67329857 -624.14257812 309.47705078 C-624.14959244 308.34858231 -624.15660675 307.22011383 -624.16383362 306.05744934 C-624.18123873 302.43685875 -624.18768566 298.81643167 -624.18945312 295.19580078 C-624.19012787 293.95937836 -624.19080261 292.72295593 -624.1914978 291.44906616 C-624.17603618 273.64377364 -623.79690926 256.29896808 -620.93945312 238.69580078 C-620.69001953 237.03798584 -620.69001953 237.03798584 -620.43554688 235.34667969 C-611.09784699 173.81296664 -586.44291964 115.33344568 -548.93945312 65.69580078 C-548.46797852 65.07125 -547.99650391 64.44669922 -547.51074219 63.80322266 C-533.39850799 45.2339663 -517.76368134 26.71910339 -500.03710938 11.52001953 C-498.60674129 10.27610538 -497.19844587 9.00646009 -495.81054688 7.71533203 C-487.97850812 0.43988486 -479.50551344 -5.92979588 -470.93945312 -12.30419922 C-469.80781738 -13.14917969 -469.80781738 -13.14917969 -468.65332031 -14.01123047 C-459.31744418 -20.95626017 -449.88444803 -27.48973613 -439.77392578 -33.25683594 C-437.94040581 -34.3036553 -436.11750351 -35.36737919 -434.29492188 -36.43310547 C-343.75482734 -88.88709426 -235.31319708 -101.03138413 0 0 Z " fill="#F76900" transform="translate(750.939453125,1103.30419921875)"/>
</svg>
